<?xml version="1.0" standalone="no"?>
<!DOCTYPE svg PUBLIC "-//W3C//DTD SVG 20010904//EN"
 "http://www.w3.org/TR/2001/REC-SVG-20010904/DTD/svg10.dtd">
<svg version="1.0" xmlns="http://www.w3.org/2000/svg"
 width="160.000000pt" height="160.000000pt" viewBox="0 0 160.000000 160.000000"
 preserveAspectRatio="xMidYMid meet">

<g transform="translate(0.000000,160.000000) scale(0.100000,-0.100000)"
fill="#000000" stroke="none">
<path d="M100 801 l0 -699 27 -4 c16 -2 94 -3 175 -3 81 1 143 -2 138 -5 -5
-3 -46 -6 -90 -5 -44 1 -80 -2 -80 -5 0 -3 56 -5 125 -5 69 0 125 3 125 6 0 4
-13 5 -30 4 -16 -1 -28 0 -26 4 4 5 208 7 239 2 5 0 5 -7 1 -13 -5 -8 0 -7 11
2 15 13 75 15 394 15 207 0 381 4 387 7 6 4 10 21 9 38 -1 16 1 27 6 25 4 -3
10 -1 13 4 3 5 0 11 -7 14 -20 7 -17 198 3 223 9 10 10 15 3 10 -16 -9 -15
-14 -17 154 -2 109 1 139 13 154 9 11 10 16 4 12 -16 -9 -15 -13 -17 154 -2
109 1 139 13 154 9 11 10 16 4 12 -16 -9 -15 -13 -17 154 -2 109 1 139 13 154
9 11 10 16 4 12 -7 -4 -14 -4 -14 1 -1 7 -5 59 -8 106 -1 16 -41 17 -701 17
l-700 0 0 -699z"/>
<path d="M1510 1440 c0 -5 5 -10 10 -10 6 0 10 5 10 10 0 6 -4 10 -10 10 -5 0
-10 -4 -10 -10z"/>
<path d="M1514 1265 c0 -14 3 -25 7 -25 3 0 7 11 7 25 0 14 -4 25 -7 25 -4 0
-7 -11 -7 -25z"/>
<path d="M1514 1160 c0 -27 2 -50 5 -50 3 0 6 23 7 50 0 28 -2 50 -5 50 -3 0
-6 -22 -7 -50z"/>
<path d="M1514 945 c0 -14 3 -25 7 -25 3 0 7 11 7 25 0 14 -4 25 -7 25 -4 0
-7 -11 -7 -25z"/>
<path d="M1514 840 c0 -27 2 -50 5 -50 3 0 6 23 7 50 0 28 -2 50 -5 50 -3 0
-6 -22 -7 -50z"/>
<path d="M1514 625 c0 -14 3 -25 7 -25 3 0 7 11 7 25 0 14 -4 25 -7 25 -4 0
-7 -11 -7 -25z"/>
<path d="M1514 520 c0 -27 2 -50 5 -50 3 0 6 23 7 50 0 28 -2 50 -5 50 -3 0
-6 -22 -7 -50z"/>
<path d="M1513 355 c0 -8 4 -15 9 -15 4 0 8 7 8 15 0 8 -4 15 -8 15 -5 0 -9
-7 -9 -15z"/>
<path d="M1514 260 c0 -38 2 -70 5 -70 4 0 6 32 7 70 0 39 -2 70 -5 70 -4 0
-6 -31 -7 -70z"/>
<path d="M1501 97 c-6 -8 -30 -13 -61 -12 -27 1 -50 -1 -50 -5 0 -9 127 -7
136 3 4 4 1 7 -7 7 -11 0 -11 2 1 10 8 5 10 10 4 10 -6 0 -17 -6 -23 -13z"/>
<path d="M130 80 c0 -3 25 -6 55 -6 30 0 55 2 55 5 0 4 -25 6 -55 7 -30 0 -55
-3 -55 -6z"/>
<path d="M550 79 c0 -3 23 -5 50 -5 28 1 50 4 50 7 0 3 -22 5 -50 5 -27 -1
-50 -4 -50 -7z"/>
<path d="M750 78 c0 -4 7 -8 15 -8 8 0 15 4 15 8 0 5 -7 9 -15 9 -8 0 -15 -4
-15 -9z"/>
<path d="M790 80 c0 -3 29 -6 65 -6 36 0 65 3 65 6 0 3 -29 5 -65 5 -36 0 -65
-2 -65 -5z"/>
<path d="M930 80 c0 -3 25 -6 55 -6 30 0 55 3 55 6 0 3 -25 5 -55 5 -30 0 -55
-2 -55 -5z"/>
<path d="M1070 80 c0 -3 29 -6 65 -6 36 0 65 3 65 6 0 3 -29 5 -65 5 -36 0
-65 -2 -65 -5z"/>
<path d="M1230 80 c0 -3 29 -6 65 -6 36 0 65 3 65 6 0 3 -29 5 -65 5 -36 0
-65 -2 -65 -5z"/>
</g>
</svg>
